<svg preserveAspectRatio="none" width="100%" height="100%" overflow="visible" style="display: block;" viewBox="0 0 1310 45.6804" fill="none" xmlns="http://www.w3.org/2000/svg">
<g id="Group 1094">
<path id="Star 6" d="M219.878 4.56347C220.11 3.49747 221.63 3.49747 221.862 4.56347L224.565 16.998C224.635 17.3195 224.856 17.5872 225.159 17.7162L234.99 21.9063C235.813 22.257 235.813 23.4233 234.99 23.774L225.159 27.9642C224.856 28.0932 224.635 28.3609 224.565 28.6824L221.862 41.1169C221.63 42.1829 220.11 42.1829 219.878 41.1169L217.175 28.6824C217.105 28.3609 216.884 28.0932 216.581 27.9642L206.75 23.774C205.927 23.4233 205.927 22.257 206.75 21.9063L216.581 17.7162C216.884 17.5872 217.105 17.3195 217.175 16.998L219.878 4.56347Z" fill="var(--fill-0, #EEE7BB)"/>
<path id="Star 7" d="M1093.9 4.56347C1094.13 3.49747 1095.65 3.49747 1095.88 4.56347L1098.59 16.998C1098.66 17.3195 1098.88 17.5872 1099.18 17.7162L1109.01 21.9063C1109.84 22.257 1109.84 23.4233 1109.01 23.774L1099.18 27.9642C1098.88 28.0932 1098.66 28.3609 1098.59 28.6824L1095.88 41.1169C1095.65 42.1829 1094.13 42.1829 1093.9 41.1169L1091.2 28.6824C1091.13 28.3609 1090.91 28.0932 1090.6 27.9642L1080.77 23.774C1079.95 23.4233 1079.95 22.257 1080.77 21.9063L1090.6 17.7162C1090.91 17.5872 1091.13 17.3195 1091.2 16.998L1093.9 4.56347Z" fill="var(--fill-0, #EEE7BB)"/>
<path id="Line 14" d="M0 22.5H1310" stroke="var(--stroke-0, white)"/>
</g>
</svg>
